<svg width="67" height="45" viewBox="0 0 67 45" fill="none" xmlns="http://www.w3.org/2000/svg">
<path d="M56.3215 44.832C49.5375 44.832 44.2042 42.9973 40.3215 39.328C36.4815 35.6587 34.5615 30.4747 34.5615 23.776C34.5615 19.1253 35.4575 15.0933 37.2495 11.68C39.0842 8.224 41.6442 5.53599 44.9295 3.61599C48.2575 1.69599 52.1188 0.735992 56.5135 0.735992C58.3482 0.735992 60.1188 0.906659 61.8255 1.24799C63.5322 1.58933 65.1748 2.05866 66.7535 2.65599L65.0255 10.912C63.6175 10.272 62.2095 9.78133 60.8015 9.43999C59.3935 9.09866 57.9855 8.92799 56.5775 8.92799C52.6522 8.92799 49.5588 10.208 47.2975 12.768C45.0788 15.328 43.9695 18.6987 43.9695 22.88C43.9695 27.1893 45.1642 30.5387 47.5535 32.928C49.9428 35.3173 53.2495 36.512 57.4735 36.512C58.7535 36.512 60.0762 36.4053 61.4415 36.192C62.8495 35.936 64.2148 35.5947 65.5375 35.168L66.9455 43.04C63.8308 44.2347 60.2895 44.832 56.3215 44.832Z" fill="white"/>
<path d="M0.542511 44V1.37601H9.82251V17.888L23.7105 1.37601H34.7825L17.2465 21.6L33.8865 44H22.6225L9.82251 26.784V44H0.542511Z" fill="white"/>
</svg>
